<?xml version="1.0" encoding="utf-8"?>
<!-- Generator: Adobe Illustrator 21.1.0, SVG Export Plug-In . SVG Version: 6.00 Build 0)  -->
<svg version="1.1" id="Capa_1" xmlns="http://www.w3.org/2000/svg" xmlns:xlink="http://www.w3.org/1999/xlink" x="0px" y="0px"
	 viewBox="0 0 96.1 96.1" style="enable-background:new 0 0 96.1 96.1;" xml:space="preserve">
<g>
	<path d="M67.3,9.5l-10,0c-11.2,0-18.5,7.4-18.5,19v8.8H28.8c-0.9,0-1.6,0.7-1.6,1.6v12.7c0,0.9,0.7,1.6,1.6,1.6h10.1v32
		c0,0.9,0.7,1.6,1.6,1.6h13.1c0.9,0,1.6-0.7,1.6-1.6v-32h11.8c0.9,0,1.6-0.7,1.6-1.6l0-12.7c0-0.4-0.2-0.8-0.5-1.1
		c-0.3-0.3-0.7-0.5-1.1-0.5H55.1v-7.4c0-3.6,0.8-5.4,5.5-5.4l6.7,0c0.9,0,1.6-0.7,1.6-1.6V11.1C68.9,10.2,68.2,9.5,67.3,9.5z"/>
</g>
</svg>
