<?xml version="1.0" encoding="utf-8"?>
<!-- Generator: Adobe Illustrator 21.1.0, SVG Export Plug-In . SVG Version: 6.00 Build 0)  -->
<svg version="1.1" id="Layer_1" xmlns="http://www.w3.org/2000/svg" xmlns:xlink="http://www.w3.org/1999/xlink" x="0px" y="0px"
	 viewBox="0 0 200 180" style="enable-background:new 0 0 200 180;" xml:space="preserve">
<g>
	<path d="M194.8,64.1c-2.9-28.7-24.3-49.5-51.6-49.5c-18,0-34.4,9-43.6,23.6c-9.2-14.9-25.2-23.6-42.8-23.6
		c-27.3,0-48.6,20.8-51.6,49.5C4.9,65.3,4,72,7,83c3.8,15.7,13,29.8,26.4,41.2L99.2,180l67.5-56.2c13.4-11.4,22.2-25.5,26.4-41.2
		C195.7,72,194.8,65.3,194.8,64.1z M186,81c-3.8,14.1-11.7,27.5-23.9,37.7l-62.9,52.2L38,118.7C25.8,108.5,17.5,95.6,13.7,81
		C11.2,70.8,12,64.9,12,64.9v-0.4c2.5-25.1,21-43.2,44-43.2c17.2,0,32.3,9.8,39.4,25.9l3.4,7.5l3.4-7.5
		c7.1-15.7,23.1-25.9,40.7-25.9c23.1,0,41.9,18.1,44,43.6C187.3,64.9,188.5,70.8,186,81z"/>
	<path d="M137.4,36.7c20.5,0,37.3,16.5,37.3,36.9c0,2-1.7,3.5-3.8,3.5c-2.1,0-3.8-1.6-3.8-3.5c0-16.5-13.4-29.5-29.8-29.5
		c-2.1,0-3.8-1.6-3.8-3.5C134,38.2,135.7,36.7,137.4,36.7z"/>
</g>
</svg>
