<?xml version="1.0" encoding="utf-8"?>
<!-- Generator: Adobe Illustrator 21.1.0, SVG Export Plug-In . SVG Version: 6.00 Build 0)  -->
<svg version="1.1" id="Layer_1" xmlns="http://www.w3.org/2000/svg" xmlns:xlink="http://www.w3.org/1999/xlink" x="0px" y="0px"
	 viewBox="0 0 200 180" style="enable-background:new 0 0 200 180;" xml:space="preserve">
<style type="text/css">
	.st0{fill:none;stroke:#000000;stroke-width:5;stroke-miterlimit:10;}
	.st1{fill:none;stroke:#000000;stroke-width:5;stroke-linecap:round;stroke-miterlimit:10;}
</style>
<g>
	<polygon class="st0" points="116.6,136.8 69.5,128.9 84.3,42.6 131.4,50.5 	"/>
	<polygon class="st0" points="131.4,50.5 84.3,42.7 87.5,23.5 134.6,31.3 	"/>
	<polygon class="st0" points="113.3,156 66.2,148.1 69.5,128.9 116.6,136.8 	"/>
	<g>
		<polyline class="st0" points="66.1,148.1 78.1,164.6 94.9,168.1 113.3,156 		"/>
		<polygon class="st0" points="81.2,166.2 79,177.4 89.7,175.7 91.5,167.6 		"/>
	</g>
	<g>
		<polygon class="st1" points="127.9,29 95.2,23.5 98.7,3 131.4,8.5 		"/>
		<polygon class="st1" points="108.4,25.1 101.8,24 105.2,4.1 111.8,5.2 		"/>
		<polygon class="st1" points="121,27.5 114.7,26.4 118.1,6.5 124.4,7.6 		"/>
	</g>
	<line class="st1" x1="120.6" y1="64.8" x2="111.4" y2="119.5"/>
</g>
</svg>
